<svg xmlns="http://www.w3.org/2000/svg" viewBox="0 0 200 54">
<style type="text/css">
	.wdt-logo-color-0{fill:#F1F0F0;}
	.wdt-logo-color1{fill:#33A9B1;}
</style>
<path class="wdt-logo-color-0" d="M40.2,2.2c2.7,0,4.9,2.2,4.9,4.9s-2.2,4.9-4.9,4.9c-2.7,0-4.9-2.2-4.9-4.9S37.5,2.2,40.2,2.2z M36.5,17.7
	c5.3,14.2-16.6,28.5-34.7,34c9.7-2.2,19.1-5.5,28.1-12.5c7.9-3.2,17.5-6.5,21.1,0.8c-0.3-8.7-6.8-9.6-13.3-9
	c1.2-1.8,2.1-3.7,2.8-5.7c1.3-3.8,1.3-8.1-2-11C29,7,15.1,17.8,6.1,14.5C15.1,19.8,32.5,8.5,36.5,17.7z M70.3,28.7
	c1.2,0.2,2.3,0.2,3.3,0.1c1-0.2,1.8-0.6,2.5-1.1c0.7-0.6,1.3-1.4,1.7-2.3c0.4-1,0.6-2.2,0.6-3.6c0-1-0.1-1.9-0.3-2.7
	c-0.2-0.8-0.5-1.5-0.9-2.1c-0.4-0.6-0.9-1-1.5-1.3c-0.6-0.3-1.3-0.5-2.2-0.5c-0.5,0-1,0-1.4,0.1c-0.4,0-0.7,0.1-1,0.1
	c-0.3,0.1-0.6,0.1-0.8,0.2V28.7z M66.5,14.2c0.2,0,0.5,0,0.8,0.1c0.2,0,0.5,0,0.8,0.1c0.3,0,0.6,0,0.9,0c0.5,0,1.1-0.1,1.9-0.2
	c0.8-0.1,1.8-0.2,3.1-0.2c1.2,0,2.2,0.2,3.2,0.5c1,0.3,1.9,0.8,2.6,1.5c0.7,0.7,1.3,1.5,1.7,2.4c0.4,0.9,0.6,2,0.6,3.2
	c0,1.6-0.3,3-1,4.2c-0.6,1.2-1.5,2.1-2.6,2.9c-1.1,0.7-2.3,1.2-3.7,1.5c-1.4,0.3-2.9,0.3-4.4,0v3c0,1,0,1.9,0,2.7
	c0,0.8,0.1,1.4,0.1,2c0,0.6,0.1,1,0.2,1.4c0.1,0.4,0.1,0.7,0.2,0.9v0.1h-4.4v-0.1c0.1-0.3,0.1-0.6,0.2-0.9c0.1-0.4,0.1-0.8,0.2-1.4
	c0-0.6,0.1-1.2,0.1-2c0-0.8,0-1.7,0-2.7V21.3c0-1,0-1.9,0-2.7c0-0.8-0.1-1.4-0.1-2c0-0.6-0.1-1-0.2-1.4
	C66.6,14.8,66.5,14.5,66.5,14.2L66.5,14.2z M103.6,27.8c-0.5,0-1.1,0-1.8,0c-0.7,0-1.5,0-2.4,0c-0.8,0-1.7,0-2.7,0
	c-0.9,0-1.8,0-2.7,0c-0.9,0-1.7,0-2.5,0c-0.8,0-1.5,0-2.1,0.1v5.4c0,1,0,1.9,0,2.7c0,0.8,0.1,1.4,0.1,2c0,0.6,0.1,1,0.2,1.4
	c0.1,0.4,0.1,0.7,0.2,0.9v0.1h-4.4v-0.1c0.1-0.3,0.1-0.6,0.2-0.9c0.1-0.4,0.1-0.8,0.2-1.4c0-0.6,0.1-1.2,0.1-2c0-0.8,0-1.7,0-2.7
	V21.3c0-1,0-1.9,0-2.7c0-0.8-0.1-1.4-0.1-2c0-0.6-0.1-1-0.2-1.4c-0.1-0.4-0.1-0.7-0.2-0.9v-0.1h4.4v0.1c-0.1,0.3-0.1,0.6-0.2,0.9
	c-0.1,0.4-0.1,0.8-0.2,1.4c0,0.6-0.1,1.2-0.1,2c0,0.8,0,1.7,0,2.7V26c0.6,0,1.3,0,2.1,0.1c0.8,0,1.6,0,2.5,0c0.9,0,1.8,0,2.7,0
	c0.9,0,1.8,0,2.6,0c0.8,0,1.6,0,2.4-0.1c0.7,0,1.4,0,1.9-0.1v-4.5c0-1,0-1.9-0.1-2.7c0-0.8-0.1-1.4-0.1-2c0-0.6-0.1-1-0.2-1.4
	c-0.1-0.4-0.1-0.7-0.2-0.9v-0.1h4.4v0.1c-0.1,0.3-0.1,0.6-0.2,0.9c-0.1,0.4-0.1,0.8-0.2,1.4c0,0.6-0.1,1.2-0.1,2c0,0.8,0,1.7,0,2.7
	v11.8c0,1,0,1.9,0,2.7c0,0.8,0.1,1.4,0.1,2c0,0.6,0.1,1,0.2,1.4c0.1,0.4,0.1,0.7,0.2,0.9v0.1H103v-0.1c0.1-0.3,0.1-0.6,0.2-0.9
	c0.1-0.4,0.1-0.8,0.2-1.4c0-0.6,0.1-1.2,0.1-2c0-0.8,0.1-1.7,0.1-2.7V27.8z M123.2,27.7v5.4c0,1,0,1.9,0,2.7c0,0.8,0.1,1.4,0.1,2
	c0,0.6,0.1,1,0.2,1.4c0.1,0.4,0.1,0.7,0.2,0.9v0.1h-4.4v-0.1c0.1-0.3,0.1-0.6,0.2-0.9c0.1-0.4,0.1-0.8,0.2-1.4c0-0.6,0.1-1.2,0.1-2
	c0-0.8,0.1-1.7,0.1-2.7v-5l-8.1-11c-0.3-0.4-0.6-0.7-0.8-1c-0.3-0.3-0.5-0.6-0.8-0.8c-0.2-0.2-0.5-0.4-0.7-0.6
	c-0.2-0.2-0.3-0.3-0.5-0.3v-0.1h5.5c0,0.3,0.1,0.7,0.3,1.4c0.2,0.6,0.7,1.4,1.3,2.2l6,8.2l5.8-8.5c0.2-0.3,0.4-0.6,0.6-0.9
	c0.2-0.3,0.4-0.6,0.6-0.9c0.2-0.3,0.3-0.6,0.4-0.8c0.1-0.2,0.2-0.4,0.2-0.6h3.5v0.1c-0.3,0.2-0.6,0.6-1.1,1c-0.4,0.4-0.9,1-1.5,1.8
	L123.2,27.7z"/>
<path class="wdt-logo-color1" d="M6.5,47.5c0.2,0,0.4,0.2,0.4,0.4c0,0.2-0.2,0.4-0.4,0.4c-0.2,0-0.4-0.2-0.4-0.4C6.1,47.7,6.3,47.5,6.5,47.5z
	 M9,45.9c0.3,0,0.5,0.2,0.5,0.5c0,0.3-0.2,0.5-0.5,0.5c-0.3,0-0.5-0.2-0.5-0.5C8.5,46.1,8.8,45.9,9,45.9z M11.8,43.9
	c0.3,0,0.6,0.3,0.6,0.6c0,0.3-0.3,0.6-0.6,0.6c-0.3,0-0.6-0.3-0.6-0.6S11.4,43.9,11.8,43.9z M14.2,41.9c0.4,0,0.8,0.4,0.8,0.8
	s-0.4,0.8-0.8,0.8c-0.4,0-0.8-0.4-0.8-0.8C13.4,42.3,13.8,41.9,14.2,41.9z M17.1,39.7c0.5,0,0.9,0.4,0.9,0.9c0,0.5-0.4,0.9-0.9,0.9
	c-0.5,0-0.9-0.4-0.9-0.9C16.1,40.1,16.6,39.7,17.1,39.7z M20.5,36.3c0.7,0,1.3,0.6,1.3,1.3c0,0.7-0.6,1.3-1.3,1.3
	c-0.7,0-1.3-0.6-1.3-1.3C19.2,36.9,19.8,36.3,20.5,36.3z M24.7,31.9c0.9,0,1.7,0.7,1.7,1.7s-0.7,1.7-1.7,1.7c-0.9,0-1.7-0.7-1.7-1.7
	C23,32.6,23.8,31.9,24.7,31.9z M31.2,23.9c0.8,0,1.4,0.6,1.4,1.4c0,0.8-0.6,1.4-1.4,1.4c-0.8,0-1.4-0.6-1.4-1.4
	C29.9,24.6,30.5,23.9,31.2,23.9z M28.7,27.7c0.9,0,1.5,0.7,1.5,1.5c0,0.9-0.7,1.5-1.5,1.5c-0.9,0-1.5-0.7-1.5-1.5
	C27.2,28.3,27.9,27.7,28.7,27.7z M30.2,17.3c0.3,0,0.6,0.3,0.6,0.6c0,0.3-0.3,0.6-0.6,0.6c-0.3,0-0.6-0.3-0.6-0.6
	C29.6,17.6,29.9,17.3,30.2,17.3z M1.7,50.3c0.2,0,0.3,0.1,0.3,0.3c0,0.2-0.1,0.3-0.3,0.3c-0.2,0-0.3-0.1-0.3-0.3
	C1.4,50.4,1.6,50.3,1.7,50.3z M3.8,49.1c0.2,0,0.4,0.2,0.4,0.4c0,0.2-0.2,0.4-0.4,0.4c-0.2,0-0.4-0.2-0.4-0.4
	C3.5,49.2,3.6,49.1,3.8,49.1z M32,20c0.5,0,0.9,0.4,0.9,0.9c0,0.5-0.4,0.9-0.9,0.9c-0.5,0-0.9-0.4-0.9-0.9C31.1,20.4,31.5,20,32,20z
	 M1.8,51.8c19.7-8,38-24.4,30.6-34c-4.7-5.3-18.2,3.9-26.3-3.2c9,5.3,26.4-6,30.4,3.2C41.8,32,19.9,46.2,1.8,51.8 M146.6,18.3h-0.4
	c-0.1-0.3-0.3-0.6-0.5-0.9c-0.2-0.4-0.5-0.7-0.8-1c-0.3-0.3-0.8-0.6-1.3-0.8c-0.5-0.2-1.1-0.3-1.7-0.3c-0.6,0-1.1,0.1-1.6,0.3
	c-0.5,0.2-0.8,0.4-1.2,0.8c-0.3,0.3-0.5,0.7-0.7,1.2c-0.2,0.4-0.2,0.9-0.2,1.5c0,0.9,0.2,1.7,0.7,2.5c0.5,0.8,1.1,1.6,1.9,2.3
	c0.7,0.8,1.5,1.5,2.4,2.3c0.9,0.8,1.7,1.6,2.4,2.4c0.7,0.8,1.3,1.7,1.8,2.6c0.5,0.9,0.7,1.9,0.7,2.9c0,0.8-0.1,1.6-0.4,2.4
	c-0.3,0.8-0.7,1.5-1.3,2.1c-0.6,0.6-1.3,1.1-2.2,1.5c-0.9,0.4-2,0.6-3.2,0.6c-0.7,0-1.3-0.1-2-0.2c-0.6-0.1-1.2-0.3-1.7-0.5
	c-0.5-0.2-1-0.4-1.4-0.6c-0.4-0.2-0.8-0.4-1-0.6l0.4-4h0.5c0.1,0.6,0.4,1.1,0.7,1.6c0.3,0.5,0.7,1,1.1,1.4c0.4,0.4,1,0.7,1.5,0.9
	c0.6,0.2,1.2,0.3,1.9,0.3c0.6,0,1.2-0.1,1.7-0.3c0.5-0.2,0.9-0.5,1.3-0.8c0.4-0.3,0.6-0.7,0.8-1.2c0.2-0.5,0.3-1,0.3-1.5
	c0-0.8-0.1-1.5-0.4-2.1c-0.3-0.7-0.6-1.3-1.1-1.9c-0.4-0.6-1-1.1-1.5-1.7c-0.6-0.5-1.2-1.1-1.8-1.6c-0.6-0.6-1.2-1.1-1.8-1.7
	c-0.6-0.6-1.1-1.2-1.5-1.9c-0.4-0.7-0.8-1.4-1.1-2.1c-0.3-0.8-0.4-1.6-0.4-2.5c0-1,0.2-1.8,0.5-2.6c0.4-0.8,0.9-1.4,1.5-2
	c0.6-0.5,1.3-1,2.1-1.3c0.8-0.3,1.6-0.4,2.4-0.4c0.6,0,1.2,0,1.7,0.1c0.5,0.1,1,0.2,1.4,0.3c0.4,0.1,0.8,0.3,1.1,0.4
	c0.3,0.1,0.6,0.2,0.7,0.3L146.6,18.3z M152.6,14.2c1.5,0,3,0,4.5,0c1.5,0,2.9,0,4.1,0c1.2,0,2.3-0.1,3.2-0.1c0.9,0,1.5-0.1,1.8-0.1
	l-0.9,2.4c-0.4-0.1-0.9-0.2-1.4-0.3c-0.5-0.1-1-0.1-1.7-0.2c-0.7-0.1-1.4-0.1-2.3-0.1c-0.3,0-0.6,0-1.1,0c-0.4,0-0.8,0-1.2,0.1
	c-0.4,0-0.9,0-1.3,0.1v9.9c1.2,0,2.4,0,3.4-0.1c1-0.1,1.9-0.1,2.6-0.2c0.8-0.1,1.6-0.2,2.2-0.3l-0.6,2.6c-0.8-0.1-1.7-0.2-2.6-0.3
	c-0.8-0.1-1.6-0.2-2.5-0.2c-0.9-0.1-1.7-0.1-2.5-0.1v11.4c1.4,0,2.7-0.1,3.9-0.2c1.2-0.1,2.2-0.3,3.1-0.4c1-0.2,2-0.4,2.9-0.6
	l-0.5,2.9c-0.1,0-0.4,0-0.7,0c-0.3,0-0.6,0-1,0c-0.4,0-0.7,0-1.1,0c-0.4,0-0.8,0-1.1,0c-0.4,0-0.7,0-0.9,0c-0.3,0-0.5,0-0.6,0h-7.8
	v-0.1c0.1-0.3,0.1-0.6,0.2-0.9c0.1-0.4,0.1-0.8,0.2-1.4c0-0.6,0.1-1.2,0.1-2c0-0.8,0-1.7,0-2.7V21.3c0-1,0-1.9,0-2.7
	c0-0.8-0.1-1.4-0.1-2c0-0.6-0.1-1-0.2-1.4C152.8,14.8,152.7,14.5,152.6,14.2L152.6,14.2z M182.7,13.8c2,0,3.9,0.3,5.6,1
	c1.7,0.7,3.2,1.6,4.4,2.8c1.2,1.2,2.2,2.6,2.9,4.3c0.7,1.7,1.1,3.5,1.1,5.5c0,1.2-0.1,2.3-0.4,3.4s-0.7,2.2-1.2,3.2
	c-0.5,1-1.1,1.9-1.9,2.8c-0.8,0.8-1.6,1.6-2.6,2.2c-1,0.6-2,1.1-3.2,1.4c-1.2,0.4-2.4,0.5-3.8,0.5c-2,0-3.9-0.3-5.6-1
	c-1.7-0.7-3.2-1.6-4.4-2.8c-1.2-1.2-2.2-2.6-2.9-4.3c-0.7-1.7-1.1-3.5-1.1-5.6c0-1.2,0.1-2.3,0.4-3.4c0.3-1.1,0.7-2.2,1.2-3.2
	c0.5-1,1.2-1.9,1.9-2.8c0.8-0.8,1.6-1.6,2.6-2.2c1-0.6,2-1.1,3.2-1.4C180.1,13.9,181.4,13.8,182.7,13.8z M183.8,39.2
	c1.3,0,2.6-0.2,3.7-0.7s2.1-1.2,2.9-2.1c0.8-0.9,1.4-2,1.9-3.4c0.4-1.3,0.7-2.8,0.7-4.5c0-1.9-0.2-3.6-0.7-5.2
	c-0.4-1.6-1.1-3-1.9-4.1c-0.8-1.2-1.9-2.1-3.2-2.7c-1.3-0.7-2.7-1-4.4-1c-1.3,0-2.6,0.2-3.7,0.7c-1.1,0.5-2.1,1.2-2.9,2.1
	c-0.8,0.9-1.4,2-1.9,3.3c-0.4,1.3-0.7,2.8-0.7,4.5c0,1.9,0.2,3.6,0.6,5.2c0.4,1.6,1.1,3,1.9,4.2c0.8,1.2,1.9,2.1,3.2,2.8
	C180.6,38.8,182.1,39.2,183.8,39.2z"/>
</svg>
