
<svg xmlns="http://www.w3.org/2000/svg" viewBox="0 0 200 54">
<style type="text/css">
	.wdt-logo-color-2{fill:#1F3D3F;}
	.wdt-logo-color-3{fill:#33A9B1;}
</style>
<path class="wdt-logo-color-2" d="M42.1,1.9C44.8,1.9,47,4,47,6.7s-2.2,4.9-4.9,4.9c-2.7,0-4.9-2.2-4.9-4.9S39.4,1.9,42.1,1.9z M38.5,17.4
	c5.3,14.2-16.6,28.5-34.7,34c9.7-2.2,19.1-5.5,28.1-12.5c7.9-3.2,17.5-6.5,21.1,0.8c-0.3-8.7-6.8-9.6-13.3-9
	c1.2-1.8,2.1-3.7,2.8-5.7c1.3-3.8,1.3-8.1-2-11C31,6.6,17,17.5,8,14.2C17,19.5,34.4,8.2,38.5,17.4z M72.2,28.4
	c1.2,0.2,2.3,0.2,3.3,0.1c1-0.2,1.8-0.6,2.5-1.1c0.7-0.6,1.3-1.4,1.7-2.3c0.4-1,0.6-2.2,0.6-3.6c0-1-0.1-1.9-0.3-2.7
	c-0.2-0.8-0.5-1.5-0.9-2.1c-0.4-0.6-0.9-1-1.5-1.3c-0.6-0.3-1.3-0.5-2.2-0.5c-0.5,0-1,0-1.4,0.1c-0.4,0-0.7,0.1-1,0.1
	c-0.3,0.1-0.6,0.1-0.8,0.2V28.4z M68.4,13.9c0.2,0,0.5,0,0.8,0.1c0.2,0,0.5,0,0.8,0.1c0.3,0,0.6,0,0.9,0c0.5,0,1.1-0.1,1.9-0.2
	c0.8-0.1,1.8-0.2,3.1-0.2c1.2,0,2.2,0.2,3.2,0.5c1,0.3,1.9,0.8,2.6,1.5c0.7,0.7,1.3,1.5,1.7,2.4c0.4,0.9,0.6,2,0.6,3.2
	c0,1.6-0.3,3-1,4.2c-0.6,1.2-1.5,2.1-2.6,2.9c-1.1,0.7-2.3,1.2-3.7,1.5c-1.4,0.3-2.9,0.3-4.4,0v3c0,1,0,1.9,0,2.7
	c0,0.8,0.1,1.4,0.1,2c0,0.6,0.1,1,0.2,1.4c0.1,0.4,0.1,0.7,0.2,0.9v0.1h-4.4v-0.1c0.1-0.3,0.1-0.6,0.2-0.9c0.1-0.4,0.1-0.8,0.2-1.4
	c0-0.6,0.1-1.2,0.1-2c0-0.8,0-1.7,0-2.7V21c0-1,0-1.9,0-2.7c0-0.8-0.1-1.4-0.1-2c0-0.6-0.1-1-0.2-1.4C68.6,14.5,68.5,14.2,68.4,13.9
	L68.4,13.9z M105.5,27.4c-0.5,0-1.1,0-1.8,0c-0.7,0-1.5,0-2.4,0c-0.8,0-1.7,0-2.7,0c-0.9,0-1.8,0-2.7,0c-0.9,0-1.7,0-2.5,0
	c-0.8,0-1.5,0-2.1,0.1v5.4c0,1,0,1.9,0,2.7c0,0.8,0.1,1.4,0.1,2c0,0.6,0.1,1,0.2,1.4c0.1,0.4,0.1,0.7,0.2,0.9v0.1h-4.4v-0.1
	c0.1-0.3,0.1-0.6,0.2-0.9c0.1-0.4,0.1-0.8,0.2-1.4c0-0.6,0.1-1.2,0.1-2c0-0.8,0-1.7,0-2.7V21c0-1,0-1.9,0-2.7c0-0.8-0.1-1.4-0.1-2
	c0-0.6-0.1-1-0.2-1.4c-0.1-0.4-0.1-0.7-0.2-0.9v-0.1h4.4v0.1c-0.1,0.3-0.1,0.6-0.2,0.9c-0.1,0.4-0.1,0.8-0.2,1.4
	c0,0.6-0.1,1.2-0.1,2c0,0.8,0,1.7,0,2.7v4.6c0.6,0,1.3,0,2.1,0.1c0.8,0,1.6,0,2.5,0c0.9,0,1.8,0,2.7,0c0.9,0,1.8,0,2.6,0
	c0.8,0,1.6,0,2.4-0.1c0.7,0,1.4,0,1.9-0.1V21c0-1,0-1.9-0.1-2.7c0-0.8-0.1-1.4-0.1-2c0-0.6-0.1-1-0.2-1.4c-0.1-0.4-0.1-0.7-0.2-0.9
	v-0.1h4.4v0.1c-0.1,0.3-0.1,0.6-0.2,0.9c-0.1,0.4-0.1,0.8-0.2,1.4c0,0.6-0.1,1.2-0.1,2c0,0.8,0,1.7,0,2.7v11.8c0,1,0,1.9,0,2.7
	c0,0.8,0.1,1.4,0.1,2c0,0.6,0.1,1,0.2,1.4c0.1,0.4,0.1,0.7,0.2,0.9v0.1H105v-0.1c0.1-0.3,0.1-0.6,0.2-0.9c0.1-0.4,0.1-0.8,0.2-1.4
	c0-0.6,0.1-1.2,0.1-2c0-0.8,0.1-1.7,0.1-2.7V27.4z M125.1,27.4v5.4c0,1,0,1.9,0,2.7c0,0.8,0.1,1.4,0.1,2c0,0.6,0.1,1,0.2,1.4
	c0.1,0.4,0.1,0.7,0.2,0.9v0.1h-4.4v-0.1c0.1-0.3,0.1-0.6,0.2-0.9c0.1-0.4,0.1-0.8,0.2-1.4c0-0.6,0.1-1.2,0.1-2
	c0-0.8,0.1-1.7,0.1-2.7v-5l-8.1-11c-0.3-0.4-0.6-0.7-0.8-1c-0.3-0.3-0.5-0.6-0.8-0.8c-0.2-0.2-0.5-0.4-0.7-0.6
	c-0.2-0.2-0.3-0.3-0.5-0.3v-0.1h5.5c0,0.3,0.1,0.7,0.3,1.4c0.2,0.6,0.7,1.4,1.3,2.2l6,8.2l5.8-8.5c0.2-0.3,0.4-0.6,0.6-0.9
	c0.2-0.3,0.4-0.6,0.6-0.9s0.3-0.6,0.4-0.8c0.1-0.2,0.2-0.4,0.2-0.6h3.5v0.1c-0.3,0.2-0.6,0.6-1.1,1c-0.4,0.4-0.9,1-1.5,1.8
	L125.1,27.4z"/>
<path class="wdt-logo-color-3" d="M8.4,47.2c0.2,0,0.4,0.2,0.4,0.4c0,0.2-0.2,0.4-0.4,0.4c-0.2,0-0.4-0.2-0.4-0.4C8,47.3,8.2,47.2,8.4,47.2z
	 M11,45.5c0.3,0,0.5,0.2,0.5,0.5s-0.2,0.5-0.5,0.5c-0.3,0-0.5-0.2-0.5-0.5C10.5,45.7,10.7,45.5,11,45.5z M13.7,43.5
	c0.3,0,0.6,0.3,0.6,0.6c0,0.3-0.3,0.6-0.6,0.6c-0.3,0-0.6-0.3-0.6-0.6S13.4,43.5,13.7,43.5z M16.1,41.6c0.4,0,0.8,0.4,0.8,0.8
	s-0.4,0.8-0.8,0.8c-0.4,0-0.8-0.4-0.8-0.8C15.3,41.9,15.7,41.6,16.1,41.6z M19,39.3c0.5,0,0.9,0.4,0.9,0.9c0,0.5-0.4,0.9-0.9,0.9
	c-0.5,0-0.9-0.4-0.9-0.9C18.1,39.7,18.5,39.3,19,39.3z M22.4,36c0.7,0,1.3,0.6,1.3,1.3c0,0.7-0.6,1.3-1.3,1.3
	c-0.7,0-1.3-0.6-1.3-1.3C21.1,36.6,21.7,36,22.4,36z M26.6,31.5c0.9,0,1.7,0.7,1.7,1.7c0,0.9-0.7,1.7-1.7,1.7
	c-0.9,0-1.7-0.7-1.7-1.7C25,32.3,25.7,31.5,26.6,31.5z M33.2,23.6c0.8,0,1.4,0.6,1.4,1.4c0,0.8-0.6,1.4-1.4,1.4
	c-0.8,0-1.4-0.6-1.4-1.4C31.8,24.2,32.4,23.6,33.2,23.6z M30.7,27.3c0.9,0,1.5,0.7,1.5,1.5c0,0.9-0.7,1.5-1.5,1.5
	c-0.9,0-1.5-0.7-1.5-1.5C29.1,28,29.8,27.3,30.7,27.3z M32.2,17c0.3,0,0.6,0.3,0.6,0.6s-0.3,0.6-0.6,0.6s-0.6-0.3-0.6-0.6
	S31.8,17,32.2,17z M3.7,50c0.2,0,0.3,0.1,0.3,0.3c0,0.2-0.1,0.3-0.3,0.3c-0.2,0-0.3-0.1-0.3-0.3C3.4,50.1,3.5,50,3.7,50z M5.8,48.7
	c0.2,0,0.4,0.2,0.4,0.4c0,0.2-0.2,0.4-0.4,0.4s-0.4-0.2-0.4-0.4C5.4,48.9,5.6,48.7,5.8,48.7z M33.9,19.7c0.5,0,0.9,0.4,0.9,0.9
	c0,0.5-0.4,0.9-0.9,0.9c-0.5,0-0.9-0.4-0.9-0.9C33,20.1,33.4,19.7,33.9,19.7z M3.7,51.5c19.7-8,38-24.4,30.6-34
	c-4.7-5.3-18.2,3.9-26.3-3.2c9,5.3,26.4-6,30.4,3.2C43.8,31.6,21.9,45.9,3.7,51.5 M148.5,18h-0.4c-0.1-0.3-0.3-0.6-0.5-0.9
	c-0.2-0.4-0.5-0.7-0.8-1c-0.3-0.3-0.8-0.6-1.3-0.8c-0.5-0.2-1.1-0.3-1.7-0.3c-0.6,0-1.1,0.1-1.6,0.3c-0.5,0.2-0.8,0.4-1.2,0.8
	c-0.3,0.3-0.5,0.7-0.7,1.2c-0.2,0.4-0.2,0.9-0.2,1.5c0,0.9,0.2,1.7,0.7,2.5c0.5,0.8,1.1,1.6,1.9,2.3c0.7,0.8,1.5,1.5,2.4,2.3
	c0.9,0.8,1.7,1.6,2.4,2.4c0.7,0.8,1.3,1.7,1.8,2.6c0.5,0.9,0.7,1.9,0.7,2.9c0,0.8-0.1,1.6-0.4,2.4c-0.3,0.8-0.7,1.5-1.3,2.1
	c-0.6,0.6-1.3,1.1-2.2,1.5c-0.9,0.4-2,0.6-3.2,0.6c-0.7,0-1.3-0.1-2-0.2c-0.6-0.1-1.2-0.3-1.7-0.5c-0.5-0.2-1-0.4-1.4-0.6
	c-0.4-0.2-0.8-0.4-1-0.6l0.4-4h0.5c0.1,0.6,0.4,1.1,0.7,1.6c0.3,0.5,0.7,1,1.1,1.4c0.4,0.4,1,0.7,1.5,0.9c0.6,0.2,1.2,0.3,1.9,0.3
	c0.6,0,1.2-0.1,1.7-0.3c0.5-0.2,0.9-0.5,1.3-0.8c0.4-0.3,0.6-0.7,0.8-1.2c0.2-0.5,0.3-1,0.3-1.5c0-0.8-0.1-1.5-0.4-2.1
	c-0.3-0.7-0.6-1.3-1.1-1.9c-0.4-0.6-1-1.1-1.5-1.7c-0.6-0.5-1.2-1.1-1.8-1.6c-0.6-0.6-1.2-1.1-1.8-1.7c-0.6-0.6-1.1-1.2-1.5-1.9
	c-0.4-0.7-0.8-1.4-1.1-2.1c-0.3-0.8-0.4-1.6-0.4-2.5c0-1,0.2-1.8,0.5-2.6c0.4-0.8,0.9-1.4,1.5-2c0.6-0.5,1.3-1,2.1-1.3
	c0.8-0.3,1.6-0.4,2.4-0.4c0.6,0,1.2,0,1.7,0.1c0.5,0.1,1,0.2,1.4,0.3c0.4,0.1,0.8,0.3,1.1,0.4c0.3,0.1,0.6,0.2,0.7,0.3L148.5,18z
	 M154.6,13.9c1.5,0,3,0,4.5,0c1.5,0,2.9,0,4.1,0c1.2,0,2.3-0.1,3.2-0.1c0.9,0,1.5-0.1,1.8-0.1l-0.9,2.4c-0.4-0.1-0.9-0.2-1.4-0.3
	c-0.5-0.1-1-0.1-1.7-0.2c-0.7-0.1-1.4-0.1-2.3-0.1c-0.3,0-0.6,0-1.1,0c-0.4,0-0.8,0-1.2,0.1c-0.4,0-0.9,0-1.3,0.1v9.9
	c1.2,0,2.4,0,3.4-0.1c1-0.1,1.9-0.1,2.6-0.2c0.8-0.1,1.6-0.2,2.2-0.3l-0.6,2.6c-0.8-0.1-1.7-0.2-2.6-0.3c-0.8-0.1-1.6-0.2-2.5-0.2
	c-0.9-0.1-1.7-0.1-2.5-0.1v11.4c1.4,0,2.7-0.1,3.9-0.2c1.2-0.1,2.2-0.3,3.1-0.4c1-0.2,2-0.4,2.9-0.6l-0.5,2.9c-0.1,0-0.4,0-0.7,0
	c-0.3,0-0.6,0-1,0c-0.4,0-0.7,0-1.1,0c-0.4,0-0.8,0-1.1,0c-0.4,0-0.7,0-0.9,0c-0.3,0-0.5,0-0.6,0h-7.8v-0.1c0.1-0.3,0.1-0.6,0.2-0.9
	c0.1-0.4,0.1-0.8,0.2-1.4c0-0.6,0.1-1.2,0.1-2c0-0.8,0-1.7,0-2.7V21c0-1,0-1.9,0-2.7c0-0.8-0.1-1.4-0.1-2c0-0.6-0.1-1-0.2-1.4
	C154.7,14.5,154.6,14.2,154.6,13.9L154.6,13.9z M184.7,13.4c2,0,3.9,0.3,5.6,1c1.7,0.7,3.2,1.6,4.4,2.8c1.2,1.2,2.2,2.6,2.9,4.3
	c0.7,1.7,1.1,3.5,1.1,5.5c0,1.2-0.1,2.3-0.4,3.4c-0.3,1.1-0.7,2.2-1.2,3.2c-0.5,1-1.1,1.9-1.9,2.8c-0.8,0.8-1.6,1.6-2.6,2.2
	c-1,0.6-2,1.1-3.2,1.4c-1.2,0.4-2.4,0.5-3.8,0.5c-2,0-3.9-0.3-5.6-1c-1.7-0.7-3.2-1.6-4.4-2.8c-1.2-1.2-2.2-2.6-2.9-4.3
	c-0.7-1.7-1.1-3.5-1.1-5.6c0-1.2,0.1-2.3,0.4-3.4c0.3-1.1,0.7-2.2,1.2-3.2c0.5-1,1.2-1.9,1.9-2.8c0.8-0.8,1.6-1.6,2.6-2.2
	c1-0.6,2-1.1,3.2-1.4C182.1,13.6,183.3,13.4,184.7,13.4z M185.7,38.8c1.3,0,2.6-0.2,3.7-0.7c1.1-0.5,2.1-1.2,2.9-2.1
	c0.8-0.9,1.4-2,1.9-3.4c0.4-1.3,0.7-2.8,0.7-4.5c0-1.9-0.2-3.6-0.7-5.2c-0.4-1.6-1.1-3-1.9-4.1c-0.8-1.2-1.9-2.1-3.2-2.7
	c-1.3-0.7-2.7-1-4.4-1c-1.3,0-2.6,0.2-3.7,0.7c-1.1,0.5-2.1,1.2-2.9,2.1c-0.8,0.9-1.4,2-1.9,3.3c-0.4,1.3-0.7,2.8-0.7,4.5
	c0,1.9,0.2,3.6,0.6,5.2c0.4,1.6,1.1,3,1.9,4.2c0.8,1.2,1.9,2.1,3.2,2.8C182.6,38.5,184,38.8,185.7,38.8z"/>
</svg>
